<?xml version="1.0" encoding="utf-8"?>
<!-- Generator: Adobe Illustrator 19.0.0, SVG Export Plug-In . SVG Version: 6.00 Build 0)  -->
<svg version="1.1" id="Calque_1" xmlns="http://www.w3.org/2000/svg" xmlns:xlink="http://www.w3.org/1999/xlink" x="0px" y="0px"
	 viewBox="0 0 417.1 114.4" style="enable-background:new 0 0 417.1 114.4;" xml:space="preserve">
<style type="text/css">
	.st0{fill:#2D3133;}
	.st1{fill:#B6C3CC;}
</style>
<path id="XMLID_39_" class="st0" d="M215.1,114.2h-39.8c-12.4,0-22-2.9-28.9-8.6c-6.9-5.7-10.3-13.7-10.3-23.9
	c0-15.3,8.7-24.4,26-27.3v-0.8c-7.2-1.3-12.7-4.2-16.5-8.6c-3.8-4.4-5.7-10-5.7-16.8c0-9.8,3.4-16.9,10.2-21.5
	c6.8-4.5,17.7-6.8,32.9-6.8l32.3,0V114.2z M201.8,11.5h-19.5c-10,0-17.3,1.4-21.9,4.3c-4.6,2.8-6.9,7.5-6.9,13.9
	c0,7,2.1,11.9,6.2,14.9c4.1,2.9,10.9,4.4,20.2,4.4h21.9V11.5z M179.1,60.1c-9.7,0-17,1.7-21.8,5c-4.8,3.3-7.1,8.5-7.1,15.6
	c0,7.6,2.3,13.2,7,16.8c4.7,3.6,11.6,5.4,20.8,5.4h23.8V60.1H179.1z"/>
<path id="XMLID_35_" class="st0" d="M239.6,0h32.3C287,0,298,2.3,304.7,6.8c6.8,4.5,10.2,11.7,10.2,21.5c0,6.8-1.9,12.4-5.7,16.8
	c-3.8,4.4-9.3,7.3-16.5,8.6v0.8c17.3,3,26,12.1,26,27.3c0,10.2-3.4,18.2-10.3,23.9c-6.9,5.7-16.5,8.6-28.9,8.6h-39.8V0z M252.9,48.9
	h21.9c9.4,0,16.1-1.5,20.2-4.4c4.1-2.9,6.2-7.9,6.2-14.9c0-6.4-2.3-11-6.9-13.9c-4.6-2.8-11.9-4.3-21.9-4.3h-19.5V48.9z M252.9,60.1
	v42.7h23.8c9.2,0,16.2-1.8,20.8-5.4c4.7-3.6,7-9.1,7-16.8c0-7.1-2.4-12.3-7.1-15.6c-4.8-3.3-12-5-21.8-5H252.9z"/>
<path id="XMLID_33_" class="st0" d="M372.3,57.1L402.8,0h14.4L379,69.9v44.3h-13.4V70.5L327.5,0h14.5L372.3,57.1z"/>
<g id="XMLID_31_">
	<path id="XMLID_32_" class="st1" d="M0.1,32.9c1.6,6,6.4,6,21.2,12.9c12.7,6,22.8,16.3,27.8,22c1.9,2.2,4.5,4,8.5,4h3.2l0,5.8
		c-0.1,0.2-0.9,0.7-1.4,0.9c-1.9,1.2-5,3.1-5,7.7c0,4.7,3.9,8.6,8.6,8.6c4.7,0,8.6-3.9,8.6-8.6c0-1.3-1-2.3-2.3-2.3
		c-1.3,0-2.3,1-2.3,2.3c0,2.2-1.8,4.1-4.1,4.1c-2.2,0-4.1-1.8-4.1-4.1c0-2,1-2.7,2.9-3.8c1.5-0.9,3.5-2.1,3.5-4.6v-6h2.7
		c3.7,0,6.6-1.9,8.5-4c5-5.7,15.2-16.1,27.8-22c14.8-7,19.6-6.9,21.2-12.9c0.7-2.8-1.5-4.3-4.1-3.1c-9.1,4-29.7,13.7-50.2,28.7
		c0,0-3.9,3.3-8.1,3.3h-0.6c-4.2,0-8.1-3.3-8.1-3.3C34,43.5,13.4,33.7,4.3,29.7C1.6,28.6-0.6,30.1,0.1,32.9z"/>
</g>
<g id="XMLID_43_">
	<path id="XMLID_44_" class="st0" d="M41.5,66c-1.9-2.1-4.2-4.6-7-7.4l-21.9,55.8h13.4l17.2-46.6C42.6,67.3,42,66.6,41.5,66z"/>
	<path id="XMLID_45_" class="st0" d="M49.4,51l13.5-36.5L76.4,51c3.2-2.3,6.4-4.4,9.6-6.6L68.6,0.4H57.5L40,44.6
		C43.1,46.7,46.2,48.7,49.4,51z"/>
	<path id="XMLID_46_" class="st0" d="M84.3,66c-0.5,0.6-1.1,1.3-1.7,1.8l17.1,46.5h13.7l-21.9-56C88.6,61.3,86.2,63.8,84.3,66z"/>
</g>
</svg>
